# xmcd CD database file
#
# Track frame offsets:
#	150
#	28689
#	51963
#	83588
#	120303
#	146069
#	178253
#	193483
#	215353
#
# Disc length: 3275 seconds
#
# Revision: 1
# Processed by: cddbd v1.5.1PL0 Copyright (c) Steve Scherf et al.
# Submitted via: CDex 1.51
#
DISCID=820cc909
DTITLE=Charlie Haden - Land of the Sun
DYEAR=2004
DGENRE=Jazz
TTITLE0=It Was You
TTITLE1=I Only Dream Of Your Love
TTITLE2=Lullaby For Patrica
TTITLE3=You Belong To My Heart
TTITLE4=Nostalgia
TTITLE5=Forever
TTITLE6=Longing
TTITLE7=When Will I Forget You
TTITLE8=Yesterday I Heard The Rain
EXTD=YEAR: 2004
EXTT0=
EXTT1=
EXTT2=
EXTT3=
EXTT4=
EXTT5=
EXTT6=
EXTT7=
EXTT8=
PLAYORDER=
